<svg xmlns="http://www.w3.org/2000/svg" viewBox="0 0 590 403.398">
  <defs>
    <style>
      .cls-1 {
        fill: #542a17;
      }

      .cls-2 {
        fill: #b1b3bf;
      }

      .cls-3, .cls-6 {
        fill: #c4c6b2;
      }

      .cls-4, .cls-5 {
        fill: none;
      }

      .cls-4 {
        stroke: #542a17;
        stroke-miterlimit: 10;
        stroke-width: 4px;
      }

      .cls-6 {
        font-size: 19px;
        font-family: HeadlineR-HM, Headline R;
      }
    </style>
  </defs>
  <g id="그룹_1045" data-name="그룹 1045" transform="translate(0 -0.064)">
    <g id="그룹_1028" data-name="그룹 1028" transform="translate(311.925 112.744)">
      <path id="패스_1941" data-name="패스 1941" class="cls-1" d="M240.576,122.885l-7.013,2H207.513l-7.013-2V113.2h40.076Z" transform="translate(-177.623 -38.057)"/>
      <path id="패스_1942" data-name="패스 1942" class="cls-1" d="M353.633,123.485l-5.844,1.837H324.744l-5.844-1.837V113.8h34.733Z" transform="translate(-98.315 -37.656)"/>
      <path id="패스_1943" data-name="패스 1943" class="cls-1" d="M192.31,74.476,238.9,69.8l188.524,2.338,35.9,7.848s.167,46.421,1.5,49.761-26.049,17.7-26.049,17.7l-219.75-.835L192.31,135.258l-5.51-21.374Z" transform="translate(-186.8 -67.128)"/>
      <path id="패스_1944" data-name="패스 1944" class="cls-1" d="M190.7,75.38l14.194,5.343,33.23-2.672,186.02,2.672,27.886,9.852,9.685-6.345-35.9-12.357L237.288,68.2Z" transform="translate(-184.188 -68.2)"/>
    </g>
    <path id="패스_1945" data-name="패스 1945" class="cls-1" d="M346.206,47.356,328.172,32.829h-7.18l-18.7,8.683h-2.839V31.493a7.056,7.056,0,0,0-7.013-7.013H292.1V17.8h-2v6.679h-.334a7.056,7.056,0,0,0-7.013,7.013V41.512h-1.336l-18.7-8.683h-7.18L237.5,47.356l3.841,4.676,8.015-3.006-2,4.509,5.343,2.5,5.343-4.175.334,4.175,4.676,1.336,4.175-4.175,7.681-1.336v9.184a9.648,9.648,0,0,0,8.015,9.351v.167h1.336v5.844h2.171V70.567h11.021v5.844h2.171V70.4a9.512,9.512,0,0,0,7.681-9.351V51.531l9.184,1.67,4.175,4.175,4.676-1.336.334-4.175,5.344,4.175,5.343-2.5-2-4.509,8.015,3.006Z" transform="translate(159.086 10.784)"/>
    <rect id="사각형_476" data-name="사각형 476" class="cls-2" width="1.336" height="3.841" transform="translate(449.004 47.907) rotate(-90)"/>
    <rect id="사각형_477" data-name="사각형 477" class="cls-1" width="22.042" height="33.397" transform="translate(439.835 87.029)"/>
    <path id="패스_1946" data-name="패스 1946" class="cls-1" d="M225.823,226.163a17.509,17.509,0,1,0-25.548-15.529,17.242,17.242,0,0,0,9.518,15.529A16.837,16.837,0,0,0,196.1,242.694v32.562h43.416V242.694A16.837,16.837,0,0,0,225.823,226.163Z" transform="translate(131.355 128.206)"/>
    <path id="패스_1947" data-name="패스 1947" class="cls-1" d="M265.723,226.163a17.509,17.509,0,1,0-25.548-15.529,17.242,17.242,0,0,0,9.518,15.529A16.837,16.837,0,0,0,236,242.694v32.562h43.416V242.694A17,17,0,0,0,265.723,226.163Z" transform="translate(158.081 128.206)"/>
    <path id="패스_1948" data-name="패스 1948" class="cls-1" d="M305.523,226.163a17.509,17.509,0,1,0-25.548-15.529,17.242,17.242,0,0,0,9.518,15.529A16.837,16.837,0,0,0,275.8,242.694v32.562h43.416V242.694A16.837,16.837,0,0,0,305.523,226.163Z" transform="translate(184.74 128.206)"/>
    <path id="패스_1949" data-name="패스 1949" class="cls-1" d="M345.423,226.163a17.509,17.509,0,1,0-25.548-15.529,17.242,17.242,0,0,0,9.518,15.529A16.837,16.837,0,0,0,315.7,242.694v32.562h43.416V242.694A17,17,0,0,0,345.423,226.163Z" transform="translate(211.467 128.206)"/>
    <circle id="타원_179" data-name="타원 179" class="cls-1" cx="98.019" cy="98.019" r="98.019" transform="translate(0 5.708)"/>
    <g id="그룹_1029" data-name="그룹 1029" transform="translate(47.423 125.101)">
      <path id="패스_1950" data-name="패스 1950" class="cls-3" d="M41.091,77.1a4.794,4.794,0,0,1,2,3.674H38.92a2.248,2.248,0,0,0-.835-1.5,3.561,3.561,0,0,0-2-.5,3.438,3.438,0,0,0-2.672,1.5c-.835,1-1,2.5-1,4.342a9.259,9.259,0,0,0,1,4.676,3.036,3.036,0,0,0,2.672,1.67,3.174,3.174,0,0,0,2.171-.835,4.332,4.332,0,0,0,1-2.338h4.175a6.592,6.592,0,0,1-2,4.175,7.168,7.168,0,0,1-5.176,1.67,7,7,0,0,1-5.677-2.5A10.487,10.487,0,0,1,28.4,84.283a8.851,8.851,0,0,1,2.338-6.512A7.935,7.935,0,0,1,36.582,75.6,11.036,11.036,0,0,1,41.091,77.1Z" transform="translate(-28.4 -75.6)"/>
      <path id="패스_1951" data-name="패스 1951" class="cls-3" d="M43.175,75.9v7.013h4.509V75.9h4.008V93.433H47.683V85.752H43.175v7.681H39V75.9Z" transform="translate(-21.3 -75.399)"/>
      <path id="패스_1952" data-name="패스 1952" class="cls-3" d="M52.608,75.9V93.433H48.6V75.9Z" transform="translate(-14.869 -75.399)"/>
      <path id="패스_1953" data-name="패스 1953" class="cls-3" d="M65.291,77.1a4.794,4.794,0,0,1,2,3.674H63.12a2.248,2.248,0,0,0-.835-1.5,3.561,3.561,0,0,0-2-.5,3.438,3.438,0,0,0-2.672,1.5c-.835,1-1,2.5-1,4.342a9.259,9.259,0,0,0,1,4.676,3.036,3.036,0,0,0,2.672,1.67,3.174,3.174,0,0,0,2.171-.835,4.332,4.332,0,0,0,1-2.338h4.175a6.592,6.592,0,0,1-2,4.175,7.168,7.168,0,0,1-5.176,1.67,7,7,0,0,1-5.677-2.5A10.487,10.487,0,0,1,52.6,84.283a8.851,8.851,0,0,1,2.338-6.512A7.935,7.935,0,0,1,60.782,75.6,11.036,11.036,0,0,1,65.291,77.1Z" transform="translate(-12.19 -75.6)"/>
      <path id="패스_1954" data-name="패스 1954" class="cls-3" d="M67.308,75.9v7.18l4.008-7.18h4.676l-4.843,8.182,5.176,9.351H71.983L68.81,87.589l-1.5,2.338v3.507H63.3V75.9Z" transform="translate(-5.023 -75.399)"/>
      <path id="패스_1955" data-name="패스 1955" class="cls-3" d="M83.053,75.9v2.839H76.708v4.175h5.677v2.839H76.708v4.843h6.679v2.839H75.873A3.174,3.174,0,0,1,73.7,92.6a3.383,3.383,0,0,1-1-2.338V75.9H83.053Z" transform="translate(1.274 -75.399)"/>
      <path id="패스_1956" data-name="패스 1956" class="cls-3" d="M84.942,75.9l4.676,10.186V75.9h4.008V93.433H89.283l-4.676-9.685v9.685H80.6V75.9Z" transform="translate(6.565 -75.399)"/>
    </g>
    <path id="패스_1957" data-name="패스 1957" class="cls-3" d="M83.659,37.281c-12.19-1.837-40.744-5.844-44.585,12.357,0,0-1.837,9.184,6.011,13.359S55.94,68.34,59.948,74.351s8.015,16.364,21.207,14.695c.668,0,1.169-.167,1.67-.167h.334c.5-.167,1.169-.167,1.67-.334H85c.5-.167,1-.167,1.5-.334h.167c.5-.167,1-.167,1.5-.334h.167l3.006-1h.167a3.356,3.356,0,0,0,1.336-.668h0a13.813,13.813,0,0,0,2.672-1.5h0a12.61,12.61,0,0,0,2.338-1.837h0a20.715,20.715,0,0,0,3.006-3.507h0c.5-.835,1-1.837,1.5-2.839h0a26.842,26.842,0,0,0,1.837-7.013C106.7,55.983,95.682,38.95,83.659,37.281Z" transform="translate(26.049 22.697)"/>
    <path id="패스_1958" data-name="패스 1958" class="cls-1" d="M56.759,39.606c-3.507,0-13.025-1.169-12.858,5.844S59.764,54.133,62.937,53.3,82.14,44.949,77.3,41.61,61.935,39.606,56.759,39.606Z" transform="translate(29.405 25.214)"/>
    <path id="패스_1959" data-name="패스 1959" class="cls-1" d="M72.065,43.839c-1.169.334-9.017,5.343-8.349,8.683s1.837,5.01,4.676,4.676,9.017-1.336,9.017-4.175C77.576,49.85,74.9,42.837,72.065,43.839Z" transform="translate(42.652 28.161)"/>
    <g id="그룹_1032" data-name="그룹 1032" transform="translate(165.481 1.7)">
      <g id="그룹_1031" data-name="그룹 1031">
        <path id="패스_1960" data-name="패스 1960" class="cls-4" d="M99.1,32.388S190.774-31.4,275.769,25.875" transform="translate(-99.1 -1.496)"/>
        <g id="그룹_1030" data-name="그룹 1030" transform="translate(152.289)">
          <path id="패스_1961" data-name="패스 1961" class="cls-1" d="M190.3,32.592l18.869-10.186L215.014,1.7l24.213,44.752Z" transform="translate(-190.3 -1.7)"/>
        </g>
      </g>
    </g>
    <g id="그룹_1035" data-name="그룹 1035" transform="translate(348.495 223.12)">
      <g id="그룹_1034" data-name="그룹 1034">
        <path id="패스_1962" data-name="패스 1962" class="cls-4" d="M237.968,134.3s.5,31.727-18.368,55.606" transform="translate(-201.399 -134.3)"/>
        <g id="그룹_1033" data-name="그룹 1033" transform="translate(0 36.569)">
          <path id="패스_1963" data-name="패스 1963" class="cls-1" d="M224.563,156.2l5.343,15.029,14.695,6.679-35.9,13.025Z" transform="translate(-208.7 -156.2)"/>
        </g>
      </g>
    </g>
    <g id="그룹_1038" data-name="그룹 1038" transform="translate(412.95 223.12)">
      <g id="그룹_1037" data-name="그룹 1037">
        <path id="패스_1964" data-name="패스 1964" class="cls-4" d="M259.945,134.3s.668,33.23-6.345,60.615" transform="translate(-243.08 -134.3)"/>
        <g id="그룹_1036" data-name="그룹 1036" transform="translate(0 44.752)">
          <path id="패스_1965" data-name="패스 1965" class="cls-1" d="M247.3,161.1l11.689,11.021,16.2-.668-26.049,27.886Z" transform="translate(-247.3 -161.1)"/>
        </g>
      </g>
    </g>
    <g id="그룹_1041" data-name="그룹 1041" transform="translate(512.972 223.12)">
      <g id="그룹_1040" data-name="그룹 1040">
        <path id="패스_1966" data-name="패스 1966" class="cls-4" d="M307.2,134.3s-.5,31.727,18.368,55.606" transform="translate(-307.199 -134.3)"/>
        <g id="그룹_1039" data-name="그룹 1039" transform="translate(0.669 36.569)">
          <path id="패스_1967" data-name="패스 1967" class="cls-1" d="M307.6,177.908l14.695-6.679,5.344-15.029L343.5,190.933Z" transform="translate(-307.6 -156.2)"/>
        </g>
      </g>
    </g>
    <g id="그룹_1044" data-name="그룹 1044" transform="translate(457.201 223.12)">
      <g id="그룹_1043" data-name="그룹 1043">
        <path id="패스_1968" data-name="패스 1968" class="cls-4" d="M280.407,134.3s-.668,33.23,6.345,60.615" transform="translate(-269.386 -134.3)"/>
        <g id="그룹_1042" data-name="그룹 1042" transform="translate(0 44.752)">
          <path id="패스_1969" data-name="패스 1969" class="cls-1" d="M273.8,171.453l16.2.668L301.686,161.1l-1.837,38.239Z" transform="translate(-273.8 -161.1)"/>
        </g>
      </g>
    </g>
    <path id="패스_1970" data-name="패스 1970" class="cls-1" d="M357.858,166.778H242.639A20.632,20.632,0,0,1,222.1,146.239h0A20.632,20.632,0,0,1,242.639,125.7H357.858A20.632,20.632,0,0,1,378.4,146.239h0A20.524,20.524,0,0,1,357.858,166.778Z" transform="translate(148.77 83.06)"/>
    <rect id="사각형_478" data-name="사각형 478" class="cls-5" width="115.386" height="28.888" transform="translate(391.409 219.78)"/>
    <text id="RETURN" class="cls-6" transform="translate(403.338 236.324)"><tspan x="0" y="0">RETURN</tspan></text>
  </g>
</svg>
