<svg xmlns="http://www.w3.org/2000/svg" viewBox="0 0 929 385.997">
  <defs>
    <style>
      .cls-1, .cls-4 {
        fill: #542a17;
      }

      .cls-1 {
        font-size: 24px;
        font-family: SegoeUI-Bold, Segoe UI;
        font-weight: 700;
      }

      .cls-2 {
        fill: none;
        stroke: #542a17;
        stroke-miterlimit: 10;
        stroke-width: 2px;
      }

      .cls-3 {
        fill: #32180c;
      }

      .cls-5 {
        fill: #c4c6b2;
      }

      .cls-6 {
        fill: #fff;
      }
    </style>
  </defs>
  <g id="그룹_1051" data-name="그룹 1051" transform="translate(-496 -1180)">
    <text id="Share" class="cls-1" transform="translate(950 1559.997)"><tspan x="-31.629" y="0">Share</tspan></text>
    <text id="dividend" class="cls-1" transform="translate(1335 1559.997)"><tspan x="-49.365" y="0">dividend</tspan></text>
    <text id="Play" class="cls-1" transform="translate(566 1559.997)"><tspan x="-23.695" y="0">Play</tspan></text>
    <g id="그룹_1050" data-name="그룹 1050" transform="translate(496 1180)">
      <line id="선_4" data-name="선 4" class="cls-2" x2="813.79" transform="translate(46.164 312.904)"/>
      <path id="패스_1971" data-name="패스 1971" class="cls-3" d="M560.5,148.7v5.455c0,6.253,11.175,11.441,25.011,11.441s25.011-5.055,25.011-11.441V148.7Z" transform="translate(185.175 49.127)"/>
      <ellipse id="타원_180" data-name="타원 180" class="cls-4" cx="25.011" cy="11.441" rx="25.011" ry="11.441" transform="translate(745.674 186.385)"/>
      <path id="패스_1972" data-name="패스 1972" class="cls-3" d="M560.5,139.6v5.455c0,6.253,11.175,11.441,25.011,11.441s25.011-5.055,25.011-11.441V139.6Z" transform="translate(185.175 46.12)"/>
      <ellipse id="타원_181" data-name="타원 181" class="cls-4" cx="25.011" cy="11.441" rx="25.011" ry="11.441" transform="translate(745.674 174.279)"/>
      <path id="패스_1973" data-name="패스 1973" class="cls-3" d="M560.5,131v5.455c0,6.253,11.175,11.441,25.011,11.441s25.011-5.055,25.011-11.441V131Z" transform="translate(185.175 43.279)"/>
      <ellipse id="타원_182" data-name="타원 182" class="cls-4" cx="25.011" cy="11.441" rx="25.011" ry="11.441" transform="translate(745.674 162.838)"/>
      <path id="패스_1974" data-name="패스 1974" class="cls-3" d="M610.6,148.7v5.455c0,6.253,11.175,11.441,25.011,11.441s25.011-5.055,25.011-11.441V148.7Z" transform="translate(201.726 49.127)"/>
      <ellipse id="타원_183" data-name="타원 183" class="cls-4" cx="25.011" cy="11.441" rx="25.011" ry="11.441" transform="translate(812.326 186.385)"/>
      <path id="패스_1975" data-name="패스 1975" class="cls-3" d="M610.6,139.6v5.455c0,6.253,11.175,11.441,25.011,11.441s25.011-5.055,25.011-11.441V139.6Z" transform="translate(201.726 46.12)"/>
      <ellipse id="타원_184" data-name="타원 184" class="cls-4" cx="25.011" cy="11.441" rx="25.011" ry="11.441" transform="translate(812.326 174.279)"/>
      <path id="패스_1976" data-name="패스 1976" class="cls-3" d="M610.6,131v5.455c0,6.253,11.175,11.441,25.011,11.441s25.011-5.055,25.011-11.441V131Z" transform="translate(201.726 43.279)"/>
      <ellipse id="타원_185" data-name="타원 185" class="cls-4" cx="25.011" cy="11.441" rx="25.011" ry="11.441" transform="translate(812.326 162.838)"/>
      <path id="패스_1977" data-name="패스 1977" class="cls-3" d="M610.6,122.1v5.455c0,6.253,11.175,11.441,25.011,11.441s25.011-5.055,25.011-11.441V122.1H610.6Z" transform="translate(201.726 40.339)"/>
      <ellipse id="타원_186" data-name="타원 186" class="cls-4" cx="25.011" cy="11.441" rx="25.011" ry="11.441" transform="translate(812.326 150.997)"/>
      <path id="패스_1978" data-name="패스 1978" class="cls-3" d="M660.7,148.7v5.455c0,6.253,11.175,11.441,25.011,11.441s25.011-5.055,25.011-11.441V148.7Z" transform="translate(218.278 49.127)"/>
      <ellipse id="타원_187" data-name="타원 187" class="cls-4" cx="25.011" cy="11.441" rx="25.011" ry="11.441" transform="translate(878.845 186.385)"/>
      <path id="패스_1979" data-name="패스 1979" class="cls-3" d="M660.7,139.6v5.455c0,6.253,11.175,11.441,25.011,11.441s25.011-5.055,25.011-11.441V139.6Z" transform="translate(218.278 46.12)"/>
      <ellipse id="타원_188" data-name="타원 188" class="cls-4" cx="25.011" cy="11.441" rx="25.011" ry="11.441" transform="translate(878.845 174.279)"/>
      <path id="패스_1980" data-name="패스 1980" class="cls-3" d="M660.7,131v5.455c0,6.253,11.175,11.441,25.011,11.441s25.011-5.055,25.011-11.441V131Z" transform="translate(218.278 43.279)"/>
      <ellipse id="타원_189" data-name="타원 189" class="cls-4" cx="25.011" cy="11.441" rx="25.011" ry="11.441" transform="translate(878.845 162.838)"/>
      <path id="패스_1981" data-name="패스 1981" class="cls-3" d="M660.7,122.1v5.455c0,6.253,11.175,11.441,25.011,11.441s25.011-5.055,25.011-11.441V122.1H660.7Z" transform="translate(218.278 40.339)"/>
      <ellipse id="타원_190" data-name="타원 190" class="cls-4" cx="25.011" cy="11.441" rx="25.011" ry="11.441" transform="translate(878.845 150.997)"/>
      <path id="패스_1982" data-name="패스 1982" class="cls-3" d="M610.6,112.9v5.455c0,6.253,11.175,11.441,25.011,11.441s25.011-5.055,25.011-11.441V112.9Z" transform="translate(201.726 37.299)"/>
      <ellipse id="타원_191" data-name="타원 191" class="cls-4" cx="25.011" cy="11.441" rx="25.011" ry="11.441" transform="translate(812.326 138.758)"/>
      <path id="패스_1983" data-name="패스 1983" class="cls-3" d="M610.6,104.3v5.455c0,6.253,11.175,11.441,25.011,11.441s25.011-5.055,25.011-11.441V104.3Z" transform="translate(201.726 34.458)"/>
      <ellipse id="타원_192" data-name="타원 192" class="cls-4" cx="25.011" cy="11.441" rx="25.011" ry="11.441" transform="translate(812.326 127.317)"/>
      <path id="패스_1984" data-name="패스 1984" class="cls-4" d="M593,85.558a17.827,17.827,0,1,0-16.231,0,17.15,17.15,0,0,0-13.969,16.9v33.126h44.168V102.321A17.264,17.264,0,0,0,593,85.558Z" transform="translate(185.934 17.146)"/>
      <path id="패스_1985" data-name="패스 1985" class="cls-4" d="M643,52.558a17.827,17.827,0,1,0-16.231,0,17.15,17.15,0,0,0-13.969,16.9v33.126h44.168V69.454A17.15,17.15,0,0,0,643,52.558Z" transform="translate(202.453 6.244)"/>
      <path id="패스_1986" data-name="패스 1986" class="cls-4" d="M693.1,74.758a17.827,17.827,0,1,0-16.231,0,17.149,17.149,0,0,0-13.969,16.9v33.126h44.035V91.654A17.271,17.271,0,0,0,693.1,74.758Z" transform="translate(219.005 13.578)"/>
      <path id="패스_1987" data-name="패스 1987" class="cls-4" d="M395.717,16.911A90.308,90.308,0,0,0,297,97.931a92.355,92.355,0,0,0,1.729,28.47l88.2-19.556-40.709,80.621a90.343,90.343,0,1,0,49.49-170.554Z" transform="translate(97.985 5.439)"/>
      <path id="패스_1988" data-name="패스 1988" class="cls-4" d="M292.4,111.327a82.468,82.468,0,0,0,43.237,55.743l37.25-73.57Z" transform="translate(96.601 30.89)"/>
      <path id="패스_1989" data-name="패스 1989" class="cls-4" d="M386.848,95.4,308.09,50.7s-17.694,28.6-9.446,64.257Z" transform="translate(97.94 16.75)"/>
      <path id="패스_1990" data-name="패스 1990" class="cls-4" d="M297.36,133.524c-14.368-6.12-20.621-8.248-23.148-9.047h0a11.143,11.143,0,0,0-1.33-.266c-.8-.133-1.729-.266-2.528-.4a21.02,21.02,0,1,0-20.222,0A17.023,17.023,0,0,0,234.3,140.841v42.306h52.151V143.236a23.452,23.452,0,0,1,2.262.8s9.313,3.06,14.1,2.794c14.368-.8,22.084-1.33,22.084-1.33V134.721C324.765,134.721,303.879,136.318,297.36,133.524Z" transform="translate(77.407 27.851)"/>
      <circle id="타원_193" data-name="타원 193" class="cls-4" cx="66.253" cy="66.253" r="66.253" transform="translate(0 0)"/>
      <g id="그룹_1046" data-name="그룹 1046" transform="translate(41.109 24.612)">
        <path id="패스_1991" data-name="패스 1991" class="cls-5" d="M30.9,53.4,56.044,88.788,81.188,53.4,56.044,68.832Z" transform="translate(-30.9 -6.97)"/>
        <path id="패스_1992" data-name="패스 1992" class="cls-5" d="M81.188,59.875,56.044,18.5,30.9,59.875,56.044,74.509Z" transform="translate(-30.9 -18.5)"/>
      </g>
      <path id="패스_1993" data-name="패스 1993" class="cls-4" d="M100.318,131.012H66.393c-1.729-2.528-3.858-7.583,1.6-13.969q6.386-7.384,5.188-13.969a12.377,12.377,0,0,0-5.987-8.381A2.83,2.83,0,0,0,64.4,99.616a6.456,6.456,0,0,1,3.06,4.39c.4,2.661-.931,5.854-3.858,9.313-5.721,6.785-5.588,13.038-3.725,17.694H25.551S2.4,132.875,2.8,161.345s13.7,47.361,22.749,47.361,23.149-32.2,30.333-32.2h14.1c7.051,0,21.286,32.2,30.333,32.2s22.217-18.891,22.749-47.361C123.466,133.008,100.318,131.012,100.318,131.012ZM40.983,160.68H36.061V165.6a4.257,4.257,0,1,1-8.514,0V160.68H22.624a4.257,4.257,0,1,1,0-8.514h4.922V147.11a4.257,4.257,0,1,1,8.514,0v4.922h4.922a4.2,4.2,0,0,1,4.257,4.257A4.4,4.4,0,0,1,40.983,160.68Zm56.674,3.991a8.248,8.248,0,1,1,8.248-8.248A8.122,8.122,0,0,1,97.657,164.671Z" transform="translate(0.924 31.16)"/>
      <circle id="타원_194" data-name="타원 194" class="cls-4" cx="22.616" cy="22.616" r="22.616" transform="translate(46.164 290.288)"/>
      <g id="그룹_1047" data-name="그룹 1047" transform="translate(65.987 305.853)">
        <path id="패스_1994" data-name="패스 1994" class="cls-6" d="M55.188,230.033V244h-3.06v-9.446H49.6v-2.262a3.268,3.268,0,0,0,2-.665,1.976,1.976,0,0,0,.8-1.729h2.794Z" transform="translate(-49.6 -229.9)"/>
      </g>
      <circle id="타원_195" data-name="타원 195" class="cls-4" cx="22.616" cy="22.616" r="22.616" transform="translate(430.376 290.288)"/>
      <g id="그룹_1048" data-name="그룹 1048" transform="translate(448.336 305.96)">
        <path id="패스_1995" data-name="패스 1995" class="cls-6" d="M345.115,230.938a4.008,4.008,0,0,1,1.2,3.06,3.714,3.714,0,0,1-.8,2.395,12.2,12.2,0,0,1-2.661,2.262,6.3,6.3,0,0,0-1.729,1.463,4.5,4.5,0,0,0-.8,1.6h5.987v2.262h-7.45a2.248,2.248,0,0,1-1.33-.4,1.3,1.3,0,0,1-.532-1.2,5.982,5.982,0,0,1,.8-2.528,6.048,6.048,0,0,1,2.794-2.661,4.043,4.043,0,0,0,1.729-1.6,3.545,3.545,0,0,0,.665-1.729,1.626,1.626,0,0,0-.4-1.2,1.31,1.31,0,0,0-2,.133,2.146,2.146,0,0,0-.4,1.2H337a4.15,4.15,0,0,1,1.463-2.927,4.854,4.854,0,0,1,3.193-1.064A4.674,4.674,0,0,1,345.115,230.938Z" transform="translate(-337 -229.981)"/>
      </g>
      <circle id="타원_196" data-name="타원 196" class="cls-4" cx="22.616" cy="22.616" r="22.616" transform="translate(814.721 290.288)"/>
      <g id="그룹_1049" data-name="그룹 1049" transform="translate(832.415 305.72)">
        <path id="패스_1996" data-name="패스 1996" class="cls-6" d="M633.682,230.731a3.01,3.01,0,0,1,1.2,2.661,4.02,4.02,0,0,1-.665,2.129,2.587,2.587,0,0,1-1.863,1.2,3.046,3.046,0,0,1,2.262,1.064,2.979,2.979,0,0,1,.8,2.262,3.911,3.911,0,0,1-1.2,2.927,4.753,4.753,0,0,1-3.459,1.2,5.445,5.445,0,0,1-3.326-.931,3.944,3.944,0,0,1-1.729-2.927h3.193a1.686,1.686,0,0,0,.532,1.2,1.626,1.626,0,0,0,1.2.4,1.21,1.21,0,0,0,1.064-.532,2.248,2.248,0,0,0,.4-1.33,2.2,2.2,0,0,0-.665-1.6,3.145,3.145,0,0,0-2.129-.532v-2.262a2.453,2.453,0,0,0,1.729-.532,1.847,1.847,0,0,0,.665-1.33,2.506,2.506,0,0,0-.266-1.064,1.036,1.036,0,0,0-.931-.4,1.364,1.364,0,0,0-1.33,1.33h-3.193a3.652,3.652,0,0,1,1.463-2.794,5.237,5.237,0,0,1,3.326-1.064A6.9,6.9,0,0,1,633.682,230.731Z" transform="translate(-625.7 -229.8)"/>
      </g>
    </g>
  </g>
</svg>
