<svg xmlns="http://www.w3.org/2000/svg" viewBox="0 0 496.411 273.384">
  <defs>
    <style>
      .cls-1 {
        fill: #303030;
      }

      .cls-2 {
        fill: #8c899a;
      }

      .cls-3 {
        fill: #b1b3bf;
      }

      .cls-4 {
        fill: #9998a5;
      }
    </style>
  </defs>
  <g id="그룹_1132" data-name="그룹 1132" transform="translate(0 0.004)">
    <path id="패스_2076" data-name="패스 2076" class="cls-1" d="M466.775,271.933l17.275-9.374-5.892-34.081L467.444,225.8l-68.161.87-2.21,2.678-37.294.134-3.616,13.793-13.056-6.7-24.841-.469v.268l-2.611-2.41-26.18,1.339-3.214.67-2.611,10.847h-7.164l-4.352-11.383-5.49-2.076-22.832,3.616-2.009-2.343-30.4.4-3.415,2.745-2.879,9.843-4.62.2-1.674-10.11-3.482-2.076-28.188-2.276L164,236.513l.536,37.027v2.812l3.08,65.617c.067.937,4.888,1.674,5.825,1.674h26.715l3.683-7.231,2.611,7.231h30l10.311-7.3.067-.067.87,6.026,38.567,5.691,28.255-12.855,1.607,1.808,30.666,1.205,5.825-3.415,2.143-13.726,9.173.67,12.119,12.856,6.495,3.816,27.385-6.963.87-40.24h0l5.356-2.076,1.54,5.156L419.37,304v31.4l5.557,2.946h42.182l1.339-6.294-6.294-56.779Z" transform="translate(-54.192 -74.615)"/>
    <path id="패스_2077" data-name="패스 2077" class="cls-1" d="M489.247,75.592,479.27,33.611,446.8,37.159,444.788,52.09l-16.069-9.173-20.02-.4v-.6l-13.726-5.557L338.328,38.9l-.268,6.361-2.946-7.03L311.947,39.7,299.293,59.322,290.321,41.11l-24.439,5.223a6.6,6.6,0,0,0-4.084-3.214L221.088,32.539h0l-21.024,24.1a4.735,4.735,0,0,0-.8,1.205l-2.009-14.663-47.94-3.95-4.687,2.544-.937,4.486-28.456.67a1.884,1.884,0,0,0-1.406.67l-2.544,12.32c-.737.937-3.883,1.138-4.62.2l-3.683-9.441h0c.134-7.164,0-18.346-2.745-20.555a7.191,7.191,0,0,0-7.03-.8s.2-10.378-6.227-13.525-12.521,3.883-12.521,3.883S77.267-.269,63.541,0C52.025.267,41.78,28.723,38.9,37.695l-9.441-2.477-22.3,25.51L0,104.718H0L12.119,146.23l28.858,20.422h0l35.888-4.419h0l3.013-6.294h26.648l3.683-7.231,2.611,7.231h30l6.629-4.687,1.205,5.49,53.23-3.281V143.016a6.414,6.414,0,0,0,1.741,1.808L232.6,163.907h0l35.888-4.419h0l2.343-4.888,3.75,2.009,27.586-3.08,6.294-5.022,6.963,5.49,29.594-8.369.6,2.812,55.373.335,5.758-6.428,25.443.536,8.369-2.544,2.277-13.86,5.892-1.607,11.182,17.342,8.1,1.406,27.519-5.892.87-40.241ZM69.433,112.351l-7.7,3.013-6.294-2.076-1.942-8.3,5.758-8.905,7.5-1.406,5.624-2.343,1.875,21.158Zm82.757,18.614-.536.335-4.888-34.817,3.281-9.909V69.834a3.824,3.824,0,0,1,.67,2.076l3.415,55.172A4,4,0,0,1,152.191,130.964Zm47.606-1.071-2.544-2.276v-6.361Zm61.332-20.221-15.065,2.611-.87-9.976,7.1-10.914h0L265.48,92.6h0l.6-19.417.87,11.115.2,27.318A6.83,6.83,0,0,0,261.128,109.672ZM332.3,97.018l3.883-6.562-.4,9.843.87,4.419Zm72.312-17.141-1.205-5.691,1.875-4.017Z" transform="translate(0 0)"/>
    <path id="패스_2078" data-name="패스 2078" class="cls-2" d="M514.887,69.011,557.538,66.4l8.1,3.75,3.549,15.065-13.324,4.955L540.6,94.455l-1.674,5.29,15,1.205,11.918.937,5.357,18.346-18.681,4.285L540.6,128.334l-.737,2.143,24.841,3.816,5.223,2.611-.937,21.426-4.553,4.821-32.407,2.21.268-7.7-3.616,7.7H518.235L510.2,124.049l1.875-7.365,9.441-2.076-9.441-1.272Z" transform="translate(-168.591 -21.943)"/>
    <path id="패스_2079" data-name="패스 2079" class="cls-3" d="M557.894,70.3l-4.285,4.285-31.4,2.879-5.022-3.616,3.549,6.428-1.406,31.469,2.879,4.285-9.307,2.143h9.307L520,126.811l2.21,29.26-.736,5.758,2.143-5.022,9.307,2.143v7.9l2.812-8.637,22.162-2.143,5.022,3.616-3.549-5.758,1.406-11.449,3.616-2.143-6.495.737-17.141-.737-5.022-7.1,2.879-7.9,25.042-7.164H567.2l-2.812-2.143L561.51,108.2l2.879-2.879-5.022,1.473-22.9-2.879-.737-5.758,4.285-7.1,20.02-5.758,7.164-.67-7.164-1.473-4.285-7.834Z" transform="translate(-169.483 -23.231)"/>
    <path id="패스_2080" data-name="패스 2080" class="cls-4" d="M527.106,83.143,556.433,81l5.691,5.691-20.689,7.164-3.616,7.834.737,7.9,23.568,2.879,4.352,7.1-25.778,7.9-2.879,9.976,6.428,9.307h17.208l-.737,10.043-22.162,2.812-9.307-2.812-2.143-25.778V119.567l-1.406-6.428Z" transform="translate(-173.713 -26.767)"/>
    <path id="패스_2081" data-name="패스 2081" class="cls-2" d="M604.54,158.028,603,152.805l3.616-43.99,6.361-2.41-6.294-.134,2.477-32.942,3.616-7.1,15.467,3.616,17.275,11.918,11.315,6.227-2.544-26.849L672.567,59l4.888,7.633s10.11,48.811,10.244,50.15,3.683,32.808,3.683,32.808l-2.946,4.821-22.765,4.955-19.283-38.834,3.482-5.29-5.089,3.616-9.709-11.851S633.4,133.522,633.532,136s-1.741,22.765-1.741,22.765Z" transform="translate(-199.256 -19.497)"/>
    <path id="패스_2082" data-name="패스 2082" class="cls-3" d="M608.5,111.26l6.294-2.41-.268-27.385-2.21-4.62,3.08,3.147,10.981-1.406,1.875-4.687-.134,5.223,20.555,15.2,13.793,3.214,4.62-2.879L663.6,72.225l-3.95-5.825,4.486,3.816,8.972.067,1.473-3.549-.067,4.218,6.9,37.227,5.156,36.357,4.285,6.16-6.16-4.486-14.329,2.745-1.473,8.7-.6-9.575L655.034,118.76l-6.763,4.151,3.482-5.29L641.308,104.3l-7.3-2.076-5.825,49.146,3.816,7.7-6.361-6.9-12.119-1.741-3.415,2.946,2.209-4.955,2.21-36.357Z" transform="translate(-201.073 -21.943)"/>
    <path id="패스_2083" data-name="패스 2083" class="cls-2" d="M225.649,67.4,222.1,71.417v13.86l3.549,3.08,7.633,3.816v10.043l3.348,1.138-3.348,1.741v47.338l-3.95,5.356-5.022,2.477,2.276,13.056,42.182-2.477,3.08-3.482-1.071-9.575-6.294-4.687-3.348-3.816.469-56.913,7.164-1.942L265.42,68.27Z" transform="translate(-73.391 -22.273)"/>
    <path id="패스_2084" data-name="패스 2084" class="cls-3" d="M228.342,70.6l2.745,3.415-.6,9.508L226.4,86.736l4.687-2.343,5.691,4.352,1.272,15.668-3.348,1.741,3.348-.2v48.811l-1.674,5.022L233.5,163h-4.352l3.95,1.339.67,3.883-3.816,4.821,4.821-3.816,30.13-2.343,3.883,3.816-2.544-5.223-.6-3.75,4.017-2.343-4.486,1.54-5.825-7.566-.8-3.616.6-59.39,5.624-2.277,2.343,1.339-1.942-2.009-3.214-12.789,3.013-3.683-3.95,3.147-28.389-.8Z" transform="translate(-74.812 -23.33)"/>
    <path id="패스_2085" data-name="패스 2085" class="cls-2" d="M112.6,76.2l25.711,2.343,4.352,27.787,3.348,2.009,3.95-1.54,3.75-26.113,2.343-4.486h23.769l3.348,4.486-1.674,31.67-2.678,14.262,4.352,43.99-9.374,4.821H154.046l-4.084-28.255-7.3-2.678v17.743l-.335,11.918-24.707,1.272-1.741-30.6,2.879-1-3.683-1.473L112.6,111.017Z" transform="translate(-37.208 -25.181)"/>
    <path id="패스_2086" data-name="패스 2086" class="cls-3" d="M116.608,82.008l4.486,7.365h11.382l4.017-7.365-2.21,9.374,4.419,22.3,7.834,3.683,7.566-3.683-1.54-4.687,2.879,2.678,3.95-23.635L157.719,80.2l2.678,4.486,16.27.67,4.888-2.009-3.348,3.75-5.825,34.817,3.147,41.312,6.026,7.231-7.365-5.691-14.061,1.808-3.482,7.7,1.138-8.838-5.691-25.108-14.529-2.343-1.339,27.787,4.151,7.365-5.691-6.026-11.182.8-4.352,6.763,2.477-9.106-1.339-29.126L117.612,112.2l-2.812-.87L116.608,110l3.214-19.216Z" transform="translate(-37.935 -26.503)"/>
    <path id="패스_2087" data-name="패스 2087" class="cls-2" d="M29.855,66.857,36.35,61.3l32.273,8.972,5.089,4.687-1.406,31.67-5.423,4.285-9.173,3.147-5.892,12.655,2.812,9.575,10.981,4.017,8.905-1.808,7.633,28.456L77.8,176.6l-29.26,5.825-9.106-1.741,1.674-5.691-4.486,1.138L19.41,163.341,9.3,128.055l.469-10.713,5.959-35.018Z" transform="translate(-3.073 -20.257)"/>
    <path id="패스_2088" data-name="패스 2088" class="cls-3" d="M70.476,159.877l-1.205-10.445,1.875-4.419-3.482,3.348-14.8-6.7,1.272-2.611-2.544,1.071-2.41-10.177,5.423-16.873,9.976-5.624,2.946,2.276-1.674-4.419,5.356.4-4.62-2.009L64.316,78.66l4.419-6.026-5.892,4.419L40.815,71.429,38.4,64.8l1.138,8.1L27.089,85.757l-4.955-1.071,4.218,2.544-6.026,38.3-6.026,3.08,5.892-1.406,11.516,28.992L28.9,159.676l4.084-1.406,15,12.789,1.942,10.11.67-10.847,18.145-8.972,6.227,10.78Zm-14.864,3.816-7.5,5.29-14.4-12.655-10.244-27.05-1-3.75L28.16,87.967,41.35,73.772l20.89,5.089,1.741,25.376-8.1,5.156-3.415,4.687-5.29,12.856,1.339,12.655,5.825,5.423,12.32,5.223.937,9.441Z" transform="translate(-4.725 -21.414)"/>
    <path id="패스_2089" data-name="패스 2089" class="cls-3" d="M21.808,133.318l-9.24-4.218-.268,1.808,9.374,2.946Z" transform="translate(-4.064 -42.661)"/>
    <path id="패스_2090" data-name="패스 2090" class="cls-3" d="M29.5,134.708l6.093-1.808-5.959,1.205Z" transform="translate(-9.748 -43.917)"/>
    <path id="패스_2091" data-name="패스 2091" class="cls-4" d="M32.224,92.428,45.415,78.3,66.3,83.389l1.741,25.376-8.1,5.156-3.415,4.687-5.29,12.856,1.339,12.655,5.825,5.423,12.32,5.223.937,9.441-11.985,3.95-7.5,5.223L37.849,160.723,26.6,129.923Z" transform="translate(-8.79 -25.875)"/>
    <path id="패스_2092" data-name="패스 2092" class="cls-2" d="M316.088,62.79l6.495-5.49,32.34,8.972,5.089,4.687-1.406,31.67-5.49,4.218-9.106,3.214-5.892,12.655,2.745,9.508,10.981,4.084,8.972-1.875,7.566,28.456L364.1,172.6l-29.327,5.825-9.039-1.741,1.674-5.691-4.486,1.138L305.71,159.341,295.6,124.055l.469-10.713,5.959-35.018Z" transform="translate(-97.678 -18.936)"/>
    <path id="패스_2093" data-name="패스 2093" class="cls-3" d="M356.676,155.777l-1.205-10.445,1.875-4.419-3.482,3.348-14.8-6.7,1.272-2.611-2.544,1.071-2.41-10.177,5.423-16.873,9.976-5.624,2.946,2.277-1.674-4.419,5.356.4-4.62-2.009L350.516,74.56l4.419-6.026-5.892,4.419-22.028-5.624L324.6,60.7l1.138,8.1L313.289,81.657l-4.955-1.071,4.218,2.544-6.026,38.3-6.026,3.08,5.892-1.406,11.516,28.992-2.812,3.482,4.084-1.406,15,12.789,1.942,10.11.67-10.847L355,157.317l6.227,10.78Zm-14.8,3.816-7.5,5.29-14.4-12.655-10.244-27.05-1-3.75L314.36,84l13.19-14.195,20.89,5.089,1.741,25.376-8.1,5.156-3.415,4.687-5.29,12.856,1.339,12.655,5.825,5.423,12.32,5.223.937,9.441Z" transform="translate(-99.298 -20.059)"/>
    <path id="패스_2094" data-name="패스 2094" class="cls-3" d="M308.008,129.251l-9.173-4.151-.335,1.741,9.441,3.013Z" transform="translate(-98.637 -41.34)"/>
    <path id="패스_2095" data-name="패스 2095" class="cls-3" d="M315.8,130.708l6.026-1.808-5.892,1.205Z" transform="translate(-104.353 -42.595)"/>
    <path id="패스_2096" data-name="패스 2096" class="cls-4" d="M318.491,88.395,331.615,74.2l20.89,5.089,1.808,25.376-8.1,5.223-3.415,4.687-5.289,12.856,1.339,12.588,5.825,5.49,12.32,5.223.937,9.374-11.985,3.95-7.5,5.29-14.4-12.655L312.8,125.823Z" transform="translate(-103.362 -24.52)"/>
    <path id="패스_2097" data-name="패스 2097" class="cls-2" d="M400,71.672l15.6-3.147,5.423-.335,4.955,20.489,5.624,4.084,5.089-3.348,13.659-23.1,3.482-3.616,18.011,14.73L470.3,95.308l-16.337,17.609-5.022,4.486v5.624l17.542,22.564,10.445,11.382-2.076,3.816-24.64,8.7-16.806-26.849-4.017.268,1.674,25.376-3.482,2.678-21.158,1.339-3.013-5.223.268-59.055Z" transform="translate(-132.176 -20.72)"/>
    <path id="패스_2098" data-name="패스 2098" class="cls-3" d="M404,76.944l1.808,1.808,11.918-2.343,2.812-4.419-1.875,5.557,4.151,18.547,9.508,4.687,7.5-5.959,14.8-22.1V66.7l1.607,6.227,9.24,8.369,5.691-1.54-4.687,3.013-2.678,8.436,1.071,1.741-2.009-.67-18.145,24.975-1.875,5.356,22.1,31.134,8.7,3.214-8.905-1.674-11.583,4.151-1.674,3.549-.536-3.549L434.8,138.878l-5.223-.2s-2.678,3.013-2.678,3.549-.67,19.283-.67,19.283l3.883,6.9-5.557-5.557-13.391,1-2.343,6.428.536-6.963-.2-52.56-1-9.709-2.544-20.756Z" transform="translate(-133.498 -22.042)"/>
    <path id="패스_2099" data-name="패스 2099" class="cls-4" d="M123.309,94.987l11.382-.67,4.687,24.774,8.7,2.678,9.374-2.678L163.482,90.3h14.73l-6.026,34.817,3.348,40.843-13.391,4.017-7.365-29.461-16.069-1.339-2.678,28.791-10.043,2.009L121.3,113.735Z" transform="translate(-40.083 -29.84)"/>
    <path id="패스_2100" data-name="패스 2100" class="cls-2" d="M171.6,245.1l25.711,2.343,4.352,27.787,3.348,2.009,3.95-1.607,3.75-26.113,2.343-4.419h23.769l3.348,4.419L240.5,281.256l-2.678,14.195,4.352,44.057-9.374,4.754H213.046l-4.084-28.188-7.3-2.678v17.743l-.335,11.918-28.055,1.205,1.607-30.532,2.879-1-3.683-1.54L171.6,279.917Z" transform="translate(-56.704 -80.992)"/>
    <path id="패스_2101" data-name="패스 2101" class="cls-3" d="M173.8,247.5l3.549,7.767,14.128,2.41,4.017-7.365-2.277,9.374,4.486,22.363,7.834,3.616,7.566-3.616-1.54-4.687,2.879,2.678,3.95-23.7-1.741-7.767,2.678,4.419,16.337.67,4.888-2.009-3.348,3.75-5.825,34.817,3.147,41.379,6.026,7.164-7.365-5.691-14.061,1.875-3.482,7.633,1.138-8.838-5.691-25.108-14.529-2.343-1.339,27.787,4.151,7.365-5.691-6.026-12.521,1.54-5.022,6.026,3.147-8.369-.67-29.8-2.009-24.3-2.812-.8,1.808-1.339.6-21.627Z" transform="translate(-57.431 -81.786)"/>
    <path id="패스_2102" data-name="패스 2102" class="cls-4" d="M180.2,260.774l13.391,2.343,4.687,24.774,8.7,2.678,9.374-2.678,6.026-28.791h14.73l-6.026,34.817,3.348,40.843-13.391,4.017-7.365-29.461-16.069-1.339-2.678,28.791-10.713,2.009L180.2,282.535Z" transform="translate(-59.546 -85.619)"/>
    <path id="패스_2103" data-name="패스 2103" class="cls-4" d="M236.3,77.3l26.782.67,3.348,10.043L260.4,91.361v61.6l.67,4.017,5.356,6.7v4.687l-26.782,2.009v-5.356l4.017-7.365v-8.035L243,90.691l-6.7-6.026Z" transform="translate(-78.083 -25.544)"/>
    <path id="패스_2104" data-name="패스 2104" class="cls-4" d="M408.3,84.656l10.043-2.009,4.017,18.748,10.043,4.687h2.678l9.374-8.7L455.839,79.3l10.043,7.365-3.348,8.7-18.748,26.113-.67,6.026,21.426,30.8-10.713,4.017L437.091,140.9l-7.365.67-2.678,3.348L426.378,165l-14.061,1.339.67-50.886Z" transform="translate(-134.919 -26.205)"/>
    <path id="패스_2105" data-name="패스 2105" class="cls-4" d="M618.978,88.743,629.022,87.4l21.426,15.4,14.73,3.348L671.2,102.8l-3.348-21.426.67-2.678h7.365l6.026,33.478,5.356,38.834-14.73,3.348-14.73-30.8-2.678-2.009L644.421,108.83l-8.035-2.009-2.009,2.009-5.357,48.208L616.3,155.7l2.678-38.165Z" transform="translate(-203.651 -26.007)"/>
    <path id="패스_2106" data-name="패스 2106" class="cls-2" d="M395.74,335.728l-1.54-5.223,3.616-43.99,6.361-2.41-6.294-.134,2.477-32.942,3.616-7.1,15.467,3.616,17.342,11.918,11.316,6.227-2.544-26.849,18.279-2.143,4.888,7.633s10.11,48.811,10.244,50.15,3.683,32.808,3.683,32.808l-2.946,4.821-22.765,4.955-19.283-38.834,3.482-5.29-5.089,3.616L426.2,284.64s-1.674,26.515-1.54,28.992-1.741,22.832-1.741,22.832Z" transform="translate(-130.26 -78.217)"/>
    <path id="패스_2107" data-name="패스 2107" class="cls-3" d="M399.6,288.96l6.294-2.343-.268-27.452-2.21-4.62,3.08,3.214,10.981-1.406,1.875-4.754-.134,5.29,20.622,15.132,13.726,3.214,4.62-2.812-3.415-22.5-4.017-5.825,4.486,3.883h8.972l1.473-3.549-.067,4.218,6.9,37.227,5.156,36.357,4.285,6.227-6.16-4.486-14.329,2.745-1.473,8.7-.6-9.642-13.257-29.26-6.763,4.084,3.482-5.29-10.445-13.257-7.3-2.143-5.825,49.146,3.816,7.767-6.361-6.9-12.119-1.808-3.415,2.946,2.21-4.955,2.21-36.29Z" transform="translate(-132.044 -80.662)"/>
    <path id="패스_2108" data-name="패스 2108" class="cls-4" d="M410.078,262.043l10.043-1.339,21.426,15.4,14.73,3.348L462.3,276.1l-3.348-21.426.67-2.678h7.365l6.026,33.478,5.357,38.834-14.73,3.348-14.73-30.8-2.678-2.009L435.521,282.13l-8.035-2.009-2.009,2.009-5.356,48.208L407.4,329l2.678-38.165Z" transform="translate(-134.622 -83.272)"/>
    <path id="패스_2109" data-name="패스 2109" class="cls-1" d="M381.2,212.2l11.784-6.7,18.882,9.039,3.549,9.24-8.905,7.834-17.877-.67L381.2,221.1Z" transform="translate(-125.964 -67.907)"/>
    <path id="패스_2110" data-name="패스 2110" class="cls-2" d="M384.9,212.857v8.57l5.959,7.3,17.475.6,6.629-6.963-3.348-6.763-17.275-8.3Z" transform="translate(-127.187 -68.502)"/>
    <path id="패스_2111" data-name="패스 2111" class="cls-3" d="M411.615,215.6l-17.275-8.3-9.441,5.557,2.678,5.825-1.272,2.611,3.214-1.674,3.348,3.683-2.009,5.423,3.683-5.156,10.311-.6,3.08,5.758-2.41-6.7Zm-17.074,6.763-5.356-4.352-1.674-5.022,5.758-2.745,16,5.289v1.205l-5.089,4.084Z" transform="translate(-127.187 -68.502)"/>
    <path id="패스_2112" data-name="패스 2112" class="cls-1" d="M103.747,222.656l-3.147,9.508,9.843,5.892,11.382-1.339,2.009-9.106-7.365-8.3-8.035-2.009Z" transform="translate(-33.242 -71.806)"/>
    <path id="패스_2113" data-name="패스 2113" class="cls-2" d="M107.978,224.987l-2.678,6.7,4.888,4.084,10.512-.736,2.343-6.428-5.223-6.763-7.164-1.54,1,4.084Z" transform="translate(-34.795 -72.798)"/>
    <path id="패스_2114" data-name="패스 2114" class="cls-3" d="M108.639,225.747l5.022-.67-.67-2.477,1.674,1.808h3.348l2.745,5.022h1.674l-1.741,1-2.009,2.678-7.365.67-2.009-2.678-2.009.67,1.741-1.607,1.607-3.08Z" transform="translate(-35.456 -73.558)"/>
    <path id="패스_2115" data-name="패스 2115" class="cls-4" d="M114.3,228.206l-1,3.616,1.339,2.009,4.687-.67,1.875-2.343-2.143-4.017Z" transform="translate(-37.439 -74.945)"/>
    <path id="패스_2116" data-name="패스 2116" class="cls-2" d="M284.544,250.383,304.9,246.5l2.544,3.883L311.26,277.3l2.678,28.188,3.415,2.678,6.294-2.343,1.473-30.532,3.147-27.586,24.372-1.205v56.243l-4.084,34.081-26.448,12.253-29.8-4.285L282,289.352Z" transform="translate(-93.184 -81.455)"/>
    <path id="패스_2117" data-name="패스 2117" class="cls-3" d="M287.54,253.882l3.013,4.218,12.722-2.812,1.54-4.888-.737,4.955,1.674.536.937-1.607-.6,2.41,3.214,23.167,2.21,30.331,7.365,3.816,9.374-4.017,3.883-53.5-1.272-5.557,1.741,4.285,17.342-.937,1.741-3.883-1.272,4.888-.737,47.4,2.611.469-2.678.536-4.017,28.791,2.41,4.218-3.013-2.812-18.212,10.043-.6,3.415-.335-3.482-26.782-4.285-3.348,5.156,2.076-6.16-10.646-47.2L286,290.841l1.339-.87,2.143-31.335Z" transform="translate(-94.506 -82.744)"/>
    <path id="패스_2118" data-name="패스 2118" class="cls-4" d="M292.144,262.915l12.186-2.544L308.682,283l1.875,30.8,9.776,5.156,11.316-4.821L335,260.37l14.931-.87v45.932l-4.285,30.331-18.212,9.909-27.318-4.218L289.6,293.848Z" transform="translate(-95.696 -85.751)"/>
    <path id="패스_2119" data-name="패스 2119" class="cls-2" d="M516.883,238.305l-3.683,5.356,3.482,27.921L535.3,274.93l2.009,3.75,4.553,27.117v30.465l36.29.268L571.92,275.8l6.428-4.017,14.529-7.164L587.521,237.1Z" transform="translate(-169.582 -78.349)"/>
    <path id="패스_2120" data-name="패스 2120" class="cls-3" d="M521.442,241.138l5.022,3.281,56.042-1.138L587.192,240l-3.616,3.75,4.821,17.476,3.549,2.41-4.017-1.339-7.566,3.348.469,6.294-1.674-5.624-8.3,2.946,5.691,60.8,2.343,5.49-3.013-4.218-26.983.937-3.214,3.348,2.076-4.352.67-25.845-2.076.4,1.674-1.741-3.214-30.465-3.482,3.214,2.879-5.156-8.169-1.339-12.454-1.272-4.084,2.477,3.013-3.214.2-20.422-2.946-1.54,3.348.4,1.942-1.339Z" transform="translate(-171.664 -79.307)"/>
    <path id="패스_2121" data-name="패스 2121" class="cls-4" d="M526,251.381l2.611-2.611,54.77-.67,4.687,15.266-6.763,2.946-10.847,4.821,6.629,59.524-25.443,2.678.8-28.992-4.955-31.6-8.637-1.607L525.6,268.99Z" transform="translate(-173.68 -81.984)"/>
    <path id="패스_2122" data-name="패스 2122" class="cls-1" d="M10.834,123.7l11.182,5.892,7.365.268-8.1,1.674L10.7,126.713Z" transform="translate(-3.536 -40.877)"/>
    <path id="패스_2123" data-name="패스 2123" class="cls-1" d="M73.2,104.061l10.579-3.549L87.6,97.7l-2.143,2.678,2.879.8Z" transform="translate(-24.188 -32.285)"/>
    <path id="패스_2124" data-name="패스 2124" class="cls-1" d="M64.263,209l-4.017,4.285L57.5,219.847l5.29-5.892Z" transform="translate(-19 -69.064)"/>
    <path id="패스_2125" data-name="패스 2125" class="cls-1" d="M297.134,119.7l11.115,5.825,7.365.335-8.1,1.607L297,122.713Z" transform="translate(-98.141 -39.555)"/>
    <path id="패스_2126" data-name="패스 2126" class="cls-1" d="M359.5,99.961l10.579-3.482,3.75-2.879-2.076,2.745,2.879.8Z" transform="translate(-118.794 -30.931)"/>
    <path id="패스_2127" data-name="패스 2127" class="cls-1" d="M206.9,206.3l-4.151-4.821-3.549-1.54,2.812.4-.6-2.343Z" transform="translate(-65.824 -65.429)"/>
    <path id="패스_2128" data-name="패스 2128" class="cls-1" d="M350.5,205l-3.95,4.218-2.745,6.629,5.29-5.892Z" transform="translate(-113.606 -67.742)"/>
    <path id="패스_2129" data-name="패스 2129" class="cls-1" d="M121.228,121.7l-4.62,2.009-1.808,1.339,4.352-.937Z" transform="translate(-37.935 -40.216)"/>
    <path id="패스_2130" data-name="패스 2130" class="cls-1" d="M265.9,374.9l-4.218-4.754-3.482-1.607,2.812.4-.6-2.343Z" transform="translate(-85.32 -121.141)"/>
    <path id="패스_2131" data-name="패스 2131" class="cls-1" d="M180.228,290.4l-4.62,1.942-1.808,1.339,4.285-.937Z" transform="translate(-57.431 -95.961)"/>
    <path id="패스_2132" data-name="패스 2132" class="cls-1" d="M284,321h6.7l-6.7,1.406Z" transform="translate(-93.845 -106.073)"/>
    <path id="패스_2133" data-name="패스 2133" class="cls-1" d="M360.237,389.414,359.3,386.2l2.611,1.406.134-1.406,2.21,1.339Z" transform="translate(-118.728 -127.618)"/>
    <path id="패스_2134" data-name="패스 2134" class="cls-1" d="M500.671,111.763,491.9,105l8.771,4.285Z" transform="translate(-162.544 -34.698)"/>
    <path id="패스_2135" data-name="패스 2135" class="cls-1" d="M515.9,268.4l3.08.335-3.08,1Z" transform="translate(-170.475 -88.692)"/>
  </g>
</svg>
